<svg version="1.1" xmlns="http://www.w3.org/2000/svg" xmlns:xlink="http://www.w3.org/1999/xlink" x="0px" y="0px" viewBox="0 0 1000 1000" fill="#fff" stroke="#fff" stroke-width="12px" enable-background="new 0 0 1000 1000" xml:space="preserve">
<g><path d="M979.4,345.6c-11.2-29.9-30-51.6-54.4-62.6c-11.2-5-23-7.6-34.9-7.6c-51.1,0-103,47.6-129.2,118.6c-32.4,87.8-13.6,173.9,43.8,200.1c11.5,5.3,23.9,8,36.7,8c52.1,0,105-43.7,131.6-108.7C993.2,444.2,995.5,388.9,979.4,345.6z M934.4,475.2c-20,48.2-58.7,81.9-94.1,81.9c-7.2,0-14-1.5-20.3-4.3c-36-16.3-45.6-79.3-21.7-143.3c19.8-53.1,57.3-90.2,91.1-90.2c6.4,0,12.7,1.4,18.7,4.1c17.6,7.8,27.1,24.8,32,37.6C952.6,393.7,950.5,436.4,934.4,475.2z"/><path d="M239.2,394C213,323.1,161.1,275.4,110,275.4c-12,0-23.7,2.6-34.9,7.6c-24.4,11-43.2,32.7-54.4,62.6C4.5,388.9,6.8,444.2,27,493.4c26.7,65,79.6,108.7,131.6,108.7c12.8,0,25.2-2.7,36.7-8C252.8,567.9,271.6,481.8,239.2,394z M180,552.8c-6.3,2.9-13.2,4.3-20.3,4.3c-35.4,0-74.1-33.7-94.1-81.9c-16.1-38.9-18.2-81.6-5.7-114.3c4.9-12.8,14.5-29.8,32-37.6c6-2.7,12.3-4.1,18.7-4.1c33.8,0,71.2,37.1,91.1,90.2C225.6,473.6,216,536.5,180,552.8z"/><path d="M352.9,384.1c4.7,0.2,9.5,0.1,14.2-0.4c27.5-2.7,52.4-16.8,72-40.9c31.6-38.8,40.3-99.5,33.7-161.9c-10.2-96.2-60.9-168-129-171c0,0-9.7,0-14.7,0.5c-30.1,3-57.4,18.6-79,45.2c-31.4,38.5-46.4,95.9-40.3,153.4C219.8,304.2,282.7,381.1,352.9,384.1z M283.2,81c10-12.1,26.8-27,50.1-29.3c2.9-0.3,5.8-0.4,8.7-0.3c46.5,2,81.3,59.4,89.2,133.8c5.5,51.4-0.4,102.2-25.1,132.1c-12.4,15.1-26.9,23.5-43.1,25.1c-2.8,0.3-5.5,0.3-8.2,0.2c-49.1-2.1-95.5-64-103.3-138C246.3,157.5,258.2,111.2,283.2,81z"/><path d="M500,459.2c-163.3,0-326.7,194.1-326.7,380.6c0,55.6,27.9,100.4,55.3,118.7c33.8,22.6,57.7,31.5,107.3,31.5c58.9,0,74.8-20.6,102.4-38.8c20-13.1,37.2-24.5,61.7-24.5c24.5,0,41.7,11.4,61.7,24.5c27.6,18.2,43.5,38.8,102.4,38.8c49.6,0,73.4-8.9,107.3-31.5c27.4-18.3,55.3-63.1,55.3-118.7C826.7,653.3,663.3,459.2,500,459.2z M750,920.5c-28,18.7-44.3,25-85.9,25c-36.3,0-47.5-8.2-66.1-21.7c-4.7-3.4-9.6-7-15.2-10.7c-22-14.5-46.9-30.9-82.8-30.9c-35.9,0-60.8,16.4-82.8,30.9c-5.6,3.7-10.5,7.2-15.2,10.7c-18.6,13.5-29.8,21.7-66.1,21.7c-41.6,0-57.9-6.2-85.9-25c-14.4-9.6-35.8-39.1-35.8-80.8c0-77.3,34.1-163.9,91.3-231.8c27.8-33,60-60.2,93.2-78.8C432.9,510,467,500,500,500c33,0,67.1,10,101.3,29.1c33.2,18.6,65.4,45.8,93.2,78.8c57.2,67.9,91.3,154.5,91.3,231.8C785.8,881.4,764.4,910.9,750,920.5z"/><path d="M633.4,383.3c4.7,0.5,9.5,0.6,14.2,0.4c70.2-3.1,133.1-80,143.1-175.1c6.1-57.5-9-114.9-40.3-153.4c-21.6-26.6-47.9-41.4-78-44.4c-4.9-0.5-15.7-0.8-15.7-0.8c-68.1,3-118.8,74.3-129,170.5c-6.6,62.4,2.1,123.1,33.7,161.9C581,366.5,605.9,380.6,633.4,383.3z M569.4,184.8C577.2,110.4,612.1,53,658.5,51c2.8-0.1,5.8,0,8.7,0.3c23.2,2.3,40.1,17.2,50.1,29.3c24.9,30.2,36.8,76.4,31.8,123.7c-7.8,74-54.1,135.8-103.3,138c-2.7,0.1-5.5,0-8.2-0.2c-16.1-1.6-30.6-10-43.1-25.1C569.8,287,563.9,236.2,569.4,184.8z"/></g>
</svg>