<?xml version="1.0" encoding="utf-8"?>
<svg version="1.1" xmlns="http://www.w3.org/2000/svg" xmlns:xlink="http://www.w3.org/1999/xlink" x="0px" y="0px" viewBox="0 0 1000 1000" fill="#f44336" enable-background="new 0 0 1000 1000" xml:space="preserve">
<g><g><path d="M989.8,328.2C975.3,165.9,856.2,82.1,751.6,73C623,61.7,555.3,101.2,500,154.1c-55.3-53-123.2-92.5-251.6-81.2c-104.6,9.2-223.7,93-238.2,255.3L10,378.1l0.1,3.3C24.9,551.2,178.3,726,479.3,916l20.6,13l20.6-13c301-189.9,454.5-364.8,469.2-534.5l0.2-49.8L989.8,328.2z M532.1,349.5c11-40.9,43.8-67.7,73.4-59.8c29.6,7.9,44.7,47.6,33.7,88.5c-11,40.9-43.8,67.7-73.4,59.8C536.2,430,521.1,390.4,532.1,349.5z M407.4,289.7c29.6-7.9,62.4,18.9,73.4,59.8c11,40.9-4.1,80.5-33.7,88.5c-29.6,7.9-62.4-18.9-73.4-59.8C362.8,337.3,377.8,297.6,407.4,289.7z M278.2,500.7c-18.8-32.5-15-69.8,8.5-83.3c23.5-13.6,57.7,1.8,76.5,34.3c18.8,32.5,15,69.8-8.5,83.4C331.2,548.5,297,533.2,278.2,500.7z M506.4,680.9c-87.5,0-158.4,75.6-158.4-26.5c0-102.2,101.6-185,158.4-184.9c56.8,0,158.4,82.8,158.4,184.9C664.9,756.5,593.9,680.9,506.4,680.9z M734.7,500.7c-18.7,32.5-53,47.9-76.5,34.3c-23.5-13.5-27.3-50.9-8.5-83.4c18.7-32.5,52.9-47.9,76.5-34.3C749.7,430.9,753.4,468.2,734.7,500.7z"/></g><g></g><g></g><g></g><g></g><g></g><g></g><g></g><g></g><g></g><g></g><g></g><g></g><g></g><g></g><g></g></g>
</svg>